<svg xmlns="http://www.w3.org/2000/svg" width="355" height="80" fill="none" viewBox="0 0 355 80"><path fill="#231F20" d="M310.495 8.87309V47.8484H302.088V8.87309H310.495V8.87309Z"/><path fill="#231F20" d="M354.647 8.87309V47.8484H346.295L327.977 22.1255V47.8484H319.846V8.87309H328.364L346.517 34.7105V8.87309H354.647Z"/><path fill="#231F20" d="M13.3432 32.3333C21.8056 32.3333 27.6539 36.8982 27.6539 44.9183C27.6539 52.8792 21.8056 57.5033 13.3432 57.5033H8.44266V71.3125H0.0908203V32.3372H13.3432V32.3333ZM8.44266 50.0953H13.513C16.8537 50.0953 19.2468 48.2038 19.2468 44.9736C19.2468 41.7434 16.8537 39.8519 13.513 39.8519H8.44266V50.0953Z"/><path fill="#231F20" d="M42.4621 32.3333V63.4582H56.0501V71.3086H34.1102V32.3333H42.4621V32.3333Z"/><path fill="#231F20" d="M60.8362 55.829V32.3333H69.2986V55.3867C69.2986 60.619 71.8614 63.9044 76.4816 63.9044C81.1017 63.9044 83.6646 60.619 83.6646 55.3867V32.3333H92.127V55.829C92.127 65.6854 86.2234 72.0312 76.4816 72.0312C66.7397 72.0312 60.8362 65.6854 60.8362 55.829Z"/><path fill="#231F20" d="M129.377 45.3606C127.43 41.6289 123.809 39.5123 119.299 39.5123C112.673 39.5123 107.437 44.9696 107.437 51.817C107.437 58.6643 112.669 64.1769 119.354 64.1769C124.531 64.1769 128.599 61.1165 129.602 56.6583H118.3V49.6412H138.57V52.7608C138.57 63.6201 130.439 72.0273 119.303 72.0273C107.942 72.0273 98.9783 62.9528 98.9783 51.813C98.9783 40.6733 108.167 31.5988 119.358 31.5988C127.153 31.5988 133.78 35.441 136.954 41.6763L129.377 45.3606Z"/><path fill="#231F20" d="M174.532 45.3606C172.585 41.6289 168.964 39.5123 164.454 39.5123C157.828 39.5123 152.592 44.9696 152.592 51.817C152.592 58.6643 157.824 64.1769 164.51 64.1769C169.687 64.1769 173.754 61.1165 174.757 56.6583H163.451V49.6412H183.721V52.7608C183.721 63.6201 175.59 72.0273 164.454 72.0273C153.093 72.0273 144.13 62.9528 144.13 51.813C144.13 40.6733 153.319 31.5988 164.51 31.5988C172.305 31.5988 178.931 35.441 182.106 41.6763L174.532 45.3606Z"/><path fill="#231F20" d="M191.01 32.3333H213.949V39.9072H199.362V47.8128H212.67V55.1617H199.362V63.7346H214.064V71.3086H191.01V32.3333Z"/><path fill="#231F20" d="M235.001 71.3086H221.804V32.3333H235.001C245.915 32.3333 254.824 40.851 254.824 51.8209C254.824 62.7909 245.912 71.3086 235.001 71.3086ZM234.776 40.1836H230.156V63.4582H234.776C241.236 63.4582 246.247 58.2813 246.247 51.8209C246.247 45.3606 241.236 40.1836 234.776 40.1836Z"/><path fill="#F0F" d="M281.246 31.5435H275.717V14.4133H123.204V8.88494H278.482C280.01 8.88494 281.246 10.1209 281.246 11.6491V31.5435Z"/><path fill="#0FF" d="M308.011 71.1111H278.395C276.867 71.1111 275.631 69.8751 275.631 68.3469V49.3134H281.159V65.5827H308.011V71.1111Z"/><path fill="#00F" d="M278.363 51.6827C271.938 51.6827 266.714 46.4584 266.714 40.0336C266.714 33.6088 271.938 28.3844 278.363 28.3844C284.788 28.3844 290.012 33.6088 290.012 40.0336C290.012 46.4584 284.784 51.6827 278.363 51.6827ZM278.363 33.9128C274.987 33.9128 272.243 36.6573 272.243 40.0336C272.243 43.4098 274.987 46.1543 278.363 46.1543C281.74 46.1543 284.484 43.4098 284.484 40.0336C284.484 36.6573 281.736 33.9128 278.363 33.9128Z"/><path fill="#231F20" d="M5.52841 8.23732H5.64292V6.78414H0V6.88286C0.651562 7.41201 0.738437 7.56602 0.738437 8.14255V15.1834C0.738437 15.7599 0.647613 15.9139 0 16.4431V16.5418H2.92611V16.4431C2.26665 15.9455 2.15213 15.7599 2.15213 15.2071V11.7163H2.7879C3.61716 11.7163 3.76327 11.7716 4.47011 12.6758H4.56883V10.3816H4.47011C3.76327 11.2819 3.61716 11.3411 2.7879 11.3411H2.15213V7.13954H3.1196C3.51054 7.13954 3.84619 7.26985 5.52841 8.23732ZM7.75557 12.3757H5.79693L6.72491 9.54045C6.76835 9.64312 6.81179 9.75369 6.85523 9.88795L7.75557 12.3757ZM9.29562 13.205L7.59761 8.53744H6.0615V8.62826C6.27869 8.82965 6.4169 8.98366 6.52747 9.15346L5.25593 13.0115C5.0269 13.7025 4.88079 13.9237 4.30426 14.4607V14.5595H6.0852V14.4607C5.59554 14.1606 5.43363 13.9632 5.43363 13.6789C5.43363 13.5406 5.47312 13.355 5.57974 13.0352L5.69031 12.6956H7.86613L8.06753 13.2484C8.18994 13.5999 8.21363 13.746 8.21363 13.8763C8.21363 14.0777 8.07542 14.2514 7.70028 14.4607V14.5595H10.1881V14.4607C9.60363 13.979 9.51676 13.8171 9.29562 13.205ZM13.0352 8.23732H13.1497V6.83153C12.6048 6.73281 11.9966 6.65383 11.432 6.65383C9.79713 6.65383 8.99156 7.74371 8.99156 8.90468C8.99156 10.2473 9.86031 11.0489 10.9739 11.9769C12.1783 12.9839 12.8851 13.5959 12.8851 14.7569C12.8851 15.7165 12.2533 16.3009 11.4043 16.3009C10.6659 16.3009 10.0775 16.0087 8.52559 14.7885H8.38738L8.95602 16.3759C9.59968 16.5576 10.3065 16.6681 11.0568 16.6681C12.9167 16.6681 13.9987 15.5388 13.9987 13.9711C13.9987 12.5218 13.1537 11.7834 11.9493 10.808C10.8436 9.91164 10.0854 9.189 10.0854 8.15045C10.0854 7.47519 10.5316 7.01318 11.2227 7.01318C11.7084 7.00923 12.044 7.19877 13.0352 8.23732ZM20.1984 8.23732H20.3129V6.78414H13.6591V8.23732H13.7736C15.3413 7.24616 15.6612 7.11585 16.0245 7.11585H16.2772V15.2071C16.2772 15.7599 16.1627 15.9455 15.5032 16.4431V16.5418H18.4649V16.4431C17.8054 15.9455 17.6909 15.7599 17.6909 15.2071V7.11585H17.9436C18.3109 7.11585 18.6268 7.24616 20.1984 8.23732ZM28.6806 7.9767H28.7951V6.72491C28.1356 6.62619 27.2906 6.54721 26.5166 6.54721C23.0614 6.54721 21.0119 8.47425 21.0119 11.6689C21.0119 14.8082 22.9705 16.7511 26.3863 16.7511C27.2748 16.7511 28.0685 16.6208 28.7043 16.451L28.957 15.061H28.8425C27.567 16.1429 26.9944 16.3957 26.0704 16.3957C23.5155 16.3957 22.6625 14.4686 22.6625 11.6136C22.6625 8.71119 23.5155 6.93815 25.9322 6.93815C26.7022 6.93815 27.2511 7.11585 28.6806 7.9767ZM28.3489 11.6136C28.3489 13.2247 28.2107 14.287 27.0497 14.287C25.8808 14.287 25.7505 13.2247 25.7505 11.6136C25.7505 10.0025 25.8808 8.94022 27.0497 8.94022C28.2186 8.94022 28.3489 10.0025 28.3489 11.6136ZM29.731 11.6136C29.731 9.91559 28.724 8.63616 27.0497 8.63616C25.3754 8.63616 24.3684 9.91954 24.3684 11.6136C24.3684 13.2958 25.3754 14.5871 27.0497 14.5871C28.724 14.5871 29.731 13.2958 29.731 11.6136ZM35.7135 16.522L38.608 16.5378V16.4391C37.9565 15.91 37.8696 15.756 37.8696 15.1794V8.14255C37.8696 7.56602 37.9565 7.41201 38.608 6.89076V6.79204L36.5586 6.77624L34.284 13.9829L31.9581 6.78414H29.885V6.88286C30.2759 7.22247 30.5168 7.4436 30.6906 7.67264V14.4884C30.6906 15.2781 30.5918 15.5941 29.8613 16.4391V16.5378H32.1793V16.4391C31.2039 15.6335 31.0657 15.3097 31.0657 14.4884V8.42292C31.0815 8.47031 31.0973 8.51374 31.1131 8.56508L33.7233 16.6208H33.8378L36.4559 8.32815V15.1755C36.4559 15.752 36.3651 15.906 35.7175 16.4273V16.522H35.7135ZM44.093 9.76553C44.093 11.5939 43.6626 12.3599 42.2647 12.3599H41.4591V7.13954H42.0277C43.5717 7.13954 44.093 7.799 44.093 9.76553ZM45.6054 9.70235C45.6054 7.50678 44.0693 6.78414 41.9883 6.78414H39.307V6.88286C39.9585 7.41201 40.0454 7.56602 40.0454 8.14255V15.1834C40.0454 15.7599 39.9546 15.9139 39.307 16.4431V16.5418H42.2331V16.4431C41.5736 15.9455 41.4591 15.7599 41.4591 15.2071V12.7193H42.2212C44.0575 12.7193 45.6054 11.9374 45.6054 9.70235ZM49.1752 12.9799H46.4149L47.7773 8.06357C47.8049 8.1465 47.8326 8.23732 47.8642 8.33999L49.1752 12.9799ZM65.6498 6.87892V6.78019H63.4464V6.87892C64.0387 7.40806 64.2203 7.66079 64.2203 8.03988C64.2203 8.24127 64.173 8.40712 64.0071 8.77832L62.7435 11.736L61.0889 8.07147C60.9586 7.78715 60.9191 7.63315 60.9191 7.48704C60.9191 7.22641 61.0652 7.08031 61.464 6.87497V6.77624H56.5872V6.87497C57.6771 7.68053 57.8232 7.99644 57.8232 8.88494V14.4963L53.748 6.78019H51.7222V6.87892C52.1447 7.24221 52.3896 7.4673 52.5988 7.74767V14.5121C52.5988 15.2466 52.5159 15.5664 51.9354 16.4391C51.4853 15.8744 51.3905 15.6059 51.1615 14.8043L48.8593 6.78019H46.8848V6.87892C47.1968 7.15139 47.3903 7.34093 47.5404 7.56207L45.6252 14.4489C45.3487 15.4479 45.1276 15.7481 44.3971 16.4391V16.5378H46.7545V16.4391C46.0793 15.9258 45.87 15.6651 45.87 15.2189C45.87 15.0412 45.9095 14.7885 46.0082 14.4489L46.3162 13.3432H49.2818L49.6925 14.8003C49.8228 15.2545 49.8702 15.4519 49.8702 15.6296C49.8702 15.8823 49.7675 16.0521 49.27 16.4431V16.5418H54.2139V16.4431C53.124 15.6375 52.9779 15.3216 52.9779 14.516V8.35579C52.9858 8.37158 52.9937 8.38343 53.0016 8.40318L57.3019 16.5418H58.1983V8.88889C58.1983 8.07937 58.2773 7.75556 58.842 6.88681C59.2092 7.32909 59.4422 7.70423 59.7423 8.37948L61.4996 12.2612V15.211C61.4996 15.7639 61.3851 15.9495 60.7256 16.447V16.5457H63.6872V16.447C63.0278 15.9495 62.9133 15.7639 62.9133 15.211V12.2178L64.3743 8.81386C64.6824 8.08332 64.9193 7.74372 65.6498 6.87892Z"/><path fill="#F0F" d="M103.069 16.8656C104.826 15.7875 106.003 13.8566 106.003 11.6491C106.003 9.44173 104.826 7.51073 103.069 6.43269C102.279 8.00434 101.833 9.77343 101.833 11.6491C101.833 13.5248 102.279 15.2939 103.069 16.8656Z"/><path fill="#F0F" d="M113.482 0C110.947 0 108.598 0.817415 106.682 2.19952C108.203 3.2973 109.447 4.74653 110.296 6.4327C111.224 5.86011 112.314 5.52841 113.482 5.52841C116.859 5.52841 119.603 8.27287 119.603 11.6491C119.603 15.0254 116.859 17.7699 113.482 17.7699C112.314 17.7699 111.224 17.4342 110.296 16.8656C109.447 18.5518 108.203 20.0049 106.682 21.0988C108.598 22.4809 110.947 23.2983 113.482 23.2983C119.907 23.2983 125.132 18.0739 125.132 11.6491C125.132 5.22434 119.903 0 113.482 0Z"/><path fill="#0FF" d="M107.362 11.6491C107.362 13.8566 108.538 15.7875 110.296 16.8656C111.085 15.2939 111.532 13.5248 111.532 11.6491C111.532 9.77343 111.085 8.00434 110.296 6.43269C108.538 7.51073 107.362 9.44173 107.362 11.6491Z"/><path fill="#0FF" d="M96.6958 6.4327C97.6238 5.86011 98.7137 5.52841 99.8826 5.52841C101.051 5.52841 102.141 5.86406 103.069 6.4327C103.918 4.74653 105.162 3.29335 106.683 2.19952C104.767 0.817415 102.418 0 99.8826 0C97.3474 0 94.9978 0.817415 93.0826 2.19952C94.603 3.2973 95.8468 4.75048 96.6958 6.4327Z"/><path fill="#0FF" d="M103.069 16.8656C102.141 17.4382 101.051 17.7699 99.8826 17.7699C98.7137 17.7699 97.6238 17.4342 96.6958 16.8656C95.8468 18.5517 94.603 20.0049 93.0826 21.0988C94.9978 22.4809 97.3474 23.2983 99.8826 23.2983C102.418 23.2983 104.767 22.4809 106.683 21.0988C105.162 20.001 103.918 18.5517 103.069 16.8656Z"/><path fill="#0FF" d="M89.4694 16.8656C91.2266 15.7875 92.4034 13.8566 92.4034 11.6491C92.4034 9.44173 91.2266 7.51073 89.4694 6.43269C88.6796 8.00434 88.2334 9.77343 88.2334 11.6491C88.2334 13.5248 88.6796 15.2939 89.4694 16.8656Z"/><path fill="#00F" d="M110.296 16.8656C108.539 15.7876 107.362 13.8566 107.362 11.6491C107.362 9.44173 108.539 7.51074 110.296 6.4327C109.447 4.74653 108.203 3.29335 106.683 2.19952C105.162 3.2973 103.918 4.74653 103.069 6.4327C104.827 7.51074 106.003 9.44173 106.003 11.6491C106.003 13.8566 104.827 15.7876 103.069 16.8656C103.918 18.5518 105.162 20.0049 106.683 21.0988C108.203 20.001 109.447 18.5518 110.296 16.8656Z"/><path fill="#F0F" d="M89.4694 16.8656C88.5414 17.4382 87.4516 17.7699 86.2827 17.7699C82.9064 17.7699 80.162 15.0254 80.162 11.6491C80.162 8.27287 82.9064 5.52841 86.2827 5.52841C87.4516 5.52841 88.5414 5.86406 89.4694 6.4327C90.3184 4.74653 91.5623 3.29335 93.0826 2.19952C91.1674 0.817415 88.8179 0 86.2827 0C79.8579 0 74.6335 5.22434 74.6335 11.6491C74.6335 18.0739 79.8579 23.2983 86.2827 23.2983C88.8179 23.2983 91.1674 22.4809 93.0826 21.0988C91.5623 20.001 90.3184 18.5518 89.4694 16.8656Z"/><path fill="#F0F" d="M96.6958 6.43269C94.9386 7.51073 93.7618 9.44173 93.7618 11.6491C93.7618 13.8566 94.9386 15.7875 96.6958 16.8656C97.4856 15.2939 97.9318 13.5248 97.9318 11.6491C97.9318 9.77343 97.4856 8.00434 96.6958 6.43269Z"/><path fill="#00F" d="M96.6959 16.8656C94.9387 15.7876 93.7619 13.8566 93.7619 11.6491C93.7619 9.44173 94.9387 7.51074 96.6959 6.4327C95.8469 4.74653 94.603 3.29335 93.0827 2.19952C91.5624 3.2973 90.3185 4.74653 89.4695 6.4327C91.2267 7.51074 92.4035 9.44173 92.4035 11.6491C92.4035 13.8566 91.2267 15.7876 89.4695 16.8656C90.3185 18.5518 91.5624 20.0049 93.0827 21.0988C94.603 20.001 95.8469 18.5518 96.6959 16.8656Z"/><path fill="#0FF" d="M318.954 73.5278C318.014 74.1201 316.904 74.4676 315.712 74.4676C312.335 74.4676 309.591 71.7232 309.591 68.3469C309.591 64.9706 312.335 62.2262 315.712 62.2262C316.904 62.2262 318.014 62.5737 318.954 63.166C319.795 61.4798 321.035 60.0227 322.547 58.9249C320.624 57.527 318.262 56.7017 315.712 56.7017C309.287 56.7017 304.062 61.9261 304.062 68.3509C304.062 74.7757 309.287 80 315.712 80C318.262 80 320.624 79.1707 322.547 77.7768C321.035 76.6711 319.795 75.214 318.954 73.5278Z"/><path fill="#0FF" d="M326.14 63.166C324.415 64.248 323.262 66.1632 323.262 68.3469C323.262 70.5306 324.415 72.4458 326.14 73.5278C326.918 71.9641 327.361 70.2068 327.361 68.3469C327.361 66.487 326.918 64.7258 326.14 63.166Z"/><path fill="#0FF" d="M343.053 56.6978C340.502 56.6978 338.141 57.527 336.218 58.921C337.73 60.0227 338.97 61.4759 339.811 63.162C340.751 62.5697 341.861 62.2222 343.053 62.2222C346.43 62.2222 349.174 64.9667 349.174 68.343C349.174 71.7192 346.43 74.4637 343.053 74.4637C341.861 74.4637 340.751 74.1162 339.811 73.5239C338.97 75.21 337.73 76.6672 336.218 77.7649C338.141 79.1628 340.502 79.9881 343.053 79.9881C349.478 79.9881 354.703 74.7638 354.703 68.339C354.703 61.9142 349.478 56.6978 343.053 56.6978Z"/><path fill="#0FF" d="M332.625 73.5278C334.35 72.4458 335.503 70.5306 335.503 68.3469C335.503 66.1632 334.35 64.248 332.625 63.166C331.847 64.7297 331.404 66.487 331.404 68.3469C331.404 70.2068 331.847 71.968 332.625 73.5278Z"/><path fill="#F0F" d="M318.953 73.5278C320.679 72.4458 321.832 70.5306 321.832 68.3469C321.832 66.1632 320.679 64.248 318.953 63.166C318.176 64.7297 317.733 66.487 317.733 68.3469C317.733 70.2068 318.176 71.968 318.953 73.5278Z"/><path fill="#F0F" d="M332.625 73.5278C331.685 74.1201 330.575 74.4676 329.382 74.4676C328.19 74.4676 327.08 74.1201 326.14 73.5278C325.299 75.214 324.059 76.6711 322.547 77.7689C324.47 79.1668 326.832 79.9921 329.382 79.9921C331.933 79.9921 334.295 79.1628 336.218 77.7689C334.706 76.6711 333.466 75.214 332.625 73.5278Z"/><path fill="#F0F" d="M326.14 63.166C327.08 62.5737 328.19 62.2262 329.382 62.2262C330.575 62.2262 331.685 62.5737 332.625 63.166C333.466 61.4798 334.706 60.0227 336.218 58.9249C334.295 57.527 331.933 56.7017 329.382 56.7017C326.832 56.7017 324.47 57.531 322.547 58.9249C324.059 60.0227 325.299 61.4759 326.14 63.166Z"/><path fill="#F0F" d="M336.933 68.3469C336.933 70.5306 338.086 72.4458 339.811 73.5278C340.589 71.9641 341.032 70.2068 341.032 68.3469C341.032 66.487 340.589 64.7258 339.811 63.166C338.086 64.248 336.933 66.1632 336.933 68.3469Z"/><path fill="#00F" d="M326.14 73.5278C324.415 72.4458 323.262 70.5306 323.262 68.3469C323.262 66.1632 324.415 64.248 326.14 63.166C325.299 61.4798 324.059 60.0227 322.547 58.9249C321.035 60.0266 319.795 61.4798 318.953 63.166C320.679 64.248 321.832 66.1632 321.832 68.3469C321.832 70.5306 320.679 72.4458 318.953 73.5278C319.795 75.214 321.035 76.6711 322.547 77.7689C324.059 76.6711 325.299 75.214 326.14 73.5278Z"/><path fill="#00F" d="M339.811 73.5278C338.086 72.4458 336.933 70.5306 336.933 68.3469C336.933 66.1632 338.086 64.248 339.811 63.166C338.97 61.4798 337.73 60.0227 336.218 58.9249C334.706 60.0266 333.466 61.4798 332.625 63.166C334.35 64.248 335.503 66.1632 335.503 68.3469C335.503 70.5306 334.35 72.4458 332.625 73.5278C333.466 75.214 334.706 76.6711 336.218 77.7689C337.73 76.6711 338.97 75.214 339.811 73.5278Z"/></svg>